<svg version="1.1" id="Layer_1" xmlns="http://www.w3.org/2000/svg" xmlns:xlink="http://www.w3.org/1999/xlink" x="0px" y="0px"
	 width="100%" viewBox="0 0 768 768" enable-background="new 0 0 768 768" xml:space="preserve">
<path fill="#000000" opacity="1.000000" stroke="none" 
	d="
M380.000000,769.000000 
	C253.333328,769.000000 127.166664,769.000000 1.000000,769.000000 
	C1.000000,513.000000 1.000000,257.000000 1.000000,1.000000 
	C257.000000,1.000000 513.000000,1.000000 769.000000,1.000000 
	C769.000000,257.000000 769.000000,513.000000 769.000000,769.000000 
	C639.500000,769.000000 510.000000,769.000000 380.000000,769.000000 
M685.683899,437.008331 
	C686.298950,436.648407 686.914062,436.288452 688.022827,435.515015 
	C704.202087,428.381042 714.879578,416.524017 720.073730,399.457886 
	C726.473755,378.429321 717.833923,352.808777 699.303894,340.950653 
	C688.779480,334.215668 677.759644,328.252380 666.936584,321.987030 
	C650.840759,312.669312 634.707886,303.415436 618.615967,294.090973 
	C600.815552,283.776550 583.052490,273.397644 565.256348,263.075806 
	C548.886780,253.581360 532.386719,244.306229 516.147095,234.595139 
	C503.222778,226.866562 490.154053,220.388306 474.389832,221.929565 
	C462.867371,223.056091 452.377747,226.765381 444.036224,234.646088 
	C429.506744,248.372910 422.547760,265.072693 425.922699,285.477814 
	C428.134857,298.852753 434.072021,310.240479 445.063934,317.787018 
	C458.050659,326.703156 471.983490,334.256073 485.610718,342.221161 
	C510.032166,356.495422 534.531738,370.636047 558.349121,385.138580 
	C551.343506,389.181458 544.318481,393.190979 537.335815,397.273132 
	C511.459747,412.400665 485.657410,427.655609 459.699768,442.641663 
	C449.878021,448.312012 440.181946,454.015137 434.027100,463.953369 
	C422.088654,483.230560 421.750885,502.764954 433.105377,522.444580 
	C446.837494,546.245117 477.656158,554.981995 500.853424,543.325073 
	C520.801758,533.300720 539.803894,521.391357 559.206970,510.284882 
	C572.564270,502.639099 585.909851,494.972351 599.228210,487.259033 
	C617.170776,476.867615 635.099304,466.451843 653.000366,455.989136 
	C663.730835,449.717499 674.397400,443.336395 684.969421,436.978058 
	C684.969421,436.978058 684.942200,437.101196 685.683899,437.008331 
M85.763290,333.679016 
	C82.129929,334.994415 78.115234,335.708435 74.928902,337.728851 
	C60.765202,346.709808 51.956333,359.291107 48.809055,376.107849 
	C45.085472,396.003906 53.291912,417.752045 70.070847,428.395325 
	C86.921486,439.084137 104.355949,448.858673 121.614738,458.895996 
	C135.359711,466.889771 149.247238,474.638031 163.031372,482.565033 
	C177.237320,490.734558 191.406189,498.968750 205.570129,507.211029 
	C219.317322,515.210754 232.886932,523.530579 246.817459,531.195679 
	C257.978912,537.337097 268.298309,545.222534 281.510864,547.283508 
	C298.585968,549.947021 313.780640,546.070374 326.590179,534.731018 
	C339.670166,523.152222 345.905426,508.209930 344.969940,490.616974 
	C344.085724,473.988861 337.347687,459.935242 323.298370,450.962830 
	C304.161835,438.741577 284.253876,427.725189 264.637299,416.259583 
	C246.730255,405.793121 228.770706,395.416504 211.189911,384.380371 
	C212.427567,383.595245 213.637665,382.762238 214.906937,382.032104 
	C239.783463,367.721985 264.725433,353.524384 289.523773,339.080139 
	C301.626434,332.030731 313.826111,325.049042 325.323486,317.086121 
	C337.742767,308.484711 343.620331,295.370972 344.835693,280.740692 
	C346.470734,261.059448 339.027374,244.734436 323.194977,232.786728 
	C306.302490,220.039032 287.447693,217.497360 268.695709,227.046921 
	C247.217392,237.984924 226.651260,250.721298 205.747971,262.778931 
	C191.203110,271.168823 176.779266,279.768250 162.262817,288.207764 
	C145.069168,298.203705 127.798706,308.067902 110.632324,318.110229 
	C102.391945,322.930847 94.314339,328.029663 85.763290,333.679016 
z"/>
<path fill="#4285F4" opacity="1.000000" stroke="none" 
	d="
M210.834320,385.000244 
	C228.770706,395.416504 246.730255,405.793121 264.637299,416.259583 
	C284.253876,427.725189 304.161835,438.741577 323.298370,450.962830 
	C337.347687,459.935242 344.085724,473.988861 344.969940,490.616974 
	C345.905426,508.209930 339.670166,523.152222 326.590179,534.731018 
	C313.780640,546.070374 298.585968,549.947021 281.510864,547.283508 
	C268.298309,545.222534 257.978912,537.337097 246.817459,531.195679 
	C232.886932,523.530579 219.317322,515.210754 205.570129,507.211029 
	C191.406189,498.968750 177.237320,490.734558 163.031372,482.565033 
	C149.247238,474.638031 135.359711,466.889771 121.614738,458.895996 
	C104.355949,448.858673 86.921486,439.084137 70.070847,428.395325 
	C53.291912,417.752045 45.085472,396.003906 48.809055,376.107849 
	C51.956333,359.291107 60.765202,346.709808 74.928902,337.728851 
	C78.115234,335.708435 82.129929,334.994415 86.367554,333.350067 
	C103.569717,328.863251 118.675674,332.133881 133.292007,340.908661 
	C157.253098,355.293549 181.629181,368.987640 205.856232,382.927887 
	C207.401459,383.817017 209.169785,384.318451 210.834320,385.000244 
z"/>
<path fill="#0F9D58" opacity="1.000000" stroke="none" 
	d="
M558.998657,384.832550 
	C534.531738,370.636047 510.032166,356.495422 485.610718,342.221161 
	C471.983490,334.256073 458.050659,326.703156 445.063934,317.787018 
	C434.072021,310.240479 428.134857,298.852753 425.922699,285.477814 
	C422.547760,265.072693 429.506744,248.372910 444.036224,234.646088 
	C452.377747,226.765381 462.867371,223.056091 474.389832,221.929565 
	C490.154053,220.388306 503.222778,226.866562 516.147095,234.595139 
	C532.386719,244.306229 548.886780,253.581360 565.256348,263.075806 
	C583.052490,273.397644 600.815552,283.776550 618.615967,294.090973 
	C634.707886,303.415436 650.840759,312.669312 666.936584,321.987030 
	C677.759644,328.252380 688.779480,334.215668 699.303894,340.950653 
	C717.833923,352.808777 726.473755,378.429321 720.073730,399.457886 
	C714.879578,416.524017 704.202087,428.381042 687.354370,435.629242 
	C686.104614,436.196045 685.523376,436.648590 684.942200,437.101196 
	C684.942200,437.101196 684.969421,436.978058 684.684204,436.698242 
	C669.899963,440.592072 655.816711,440.151306 642.471008,432.433990 
	C616.149414,417.213226 589.864807,401.928650 563.541931,386.710144 
	C562.135681,385.897156 560.517944,385.450012 558.998657,384.832550 
z"/>
<path fill="#FBBC04" opacity="1.000000" stroke="none" 
	d="
M558.673889,384.985565 
	C560.517944,385.450012 562.135681,385.897156 563.541931,386.710144 
	C589.864807,401.928650 616.149414,417.213226 642.471008,432.433990 
	C655.816711,440.151306 669.899963,440.592072 684.745850,436.711487 
	C674.397400,443.336395 663.730835,449.717499 653.000366,455.989136 
	C635.099304,466.451843 617.170776,476.867615 599.228210,487.259033 
	C585.909851,494.972351 572.564270,502.639099 559.206970,510.284882 
	C539.803894,521.391357 520.801758,533.300720 500.853424,543.325073 
	C477.656158,554.981995 446.837494,546.245117 433.105377,522.444580 
	C421.750885,502.764954 422.088654,483.230560 434.027100,463.953369 
	C440.181946,454.015137 449.878021,448.312012 459.699768,442.641663 
	C485.657410,427.655609 511.459747,412.400665 537.335815,397.273132 
	C544.318481,393.190979 551.343506,389.181458 558.673889,384.985565 
z"/>
<path fill="#EA4335" opacity="1.000000" stroke="none" 
	d="
M211.012115,384.690308 
	C209.169785,384.318451 207.401459,383.817017 205.856232,382.927887 
	C181.629181,368.987640 157.253098,355.293549 133.292007,340.908661 
	C118.675674,332.133881 103.569717,328.863251 86.567421,333.011810 
	C94.314339,328.029663 102.391945,322.930847 110.632324,318.110229 
	C127.798706,308.067902 145.069168,298.203705 162.262817,288.207764 
	C176.779266,279.768250 191.203110,271.168823 205.747971,262.778931 
	C226.651260,250.721298 247.217392,237.984924 268.695709,227.046921 
	C287.447693,217.497360 306.302490,220.039032 323.194977,232.786728 
	C339.027374,244.734436 346.470734,261.059448 344.835693,280.740692 
	C343.620331,295.370972 337.742767,308.484711 325.323486,317.086121 
	C313.826111,325.049042 301.626434,332.030731 289.523773,339.080139 
	C264.725433,353.524384 239.783463,367.721985 214.906937,382.032104 
	C213.637665,382.762238 212.427567,383.595245 211.012115,384.690308 
z"/>
<path fill="#FBBC04" opacity="1.000000" stroke="none" 
	d="
M685.313049,437.054749 
	C685.523376,436.648590 686.104614,436.196045 687.107544,435.835999 
	C686.914062,436.288452 686.298950,436.648407 685.313049,437.054749 
z"/>
</svg>