<?xml version="1.0" encoding="UTF-8"?>
<svg version="1.1" xmlns="http://www.w3.org/2000/svg" width="1200" height="630">
<path d="M0 0 C396 0 792 0 1200 0 C1200 207.9 1200 415.8 1200 630 C804 630 408 630 0 630 C0 422.1 0 214.2 0 0 Z " fill="#081533" transform="translate(0,0)"/>
<path d="M0 0 C1.19367188 0.18304688 2.38734375 0.36609375 3.6171875 0.5546875 C44.56655306 7.22852776 83.75127899 29.89612135 109 63 C109.73734375 63.93328125 110.4746875 64.8665625 111.234375 65.828125 C121.09792857 78.54870788 128.58963709 92.27244313 135 107 C135.39960937 107.9178125 135.79921875 108.835625 136.2109375 109.78125 C138.58172338 115.77459672 140.09290008 122.00112939 141.625 128.25 C141.8314917 129.08305664 142.0379834 129.91611328 142.25073242 130.77441406 C145.43855594 144.32363552 146.40973152 157.70443978 146.375 171.5625 C146.37478851 172.34725708 146.37457703 173.13201416 146.37435913 173.94055176 C146.32378426 192.82343405 143.29154359 210.1966847 137 228 C136.65582031 229.03382813 136.31164062 230.06765625 135.95703125 231.1328125 C130.24707402 247.25261955 121.63499064 262.62947846 111 276 C110.57251465 276.54027832 110.1450293 277.08055664 109.70458984 277.63720703 C90.1800348 302.05194334 58.1308969 331.0016416 25.8125 335.4375 C22.21901011 334.87851268 20.58130291 333.5075514 18 331 C16.66066627 328.32133254 16.86796508 326.25563287 16.8581543 323.25610352 C16.84760262 321.44765709 16.84760262 321.44765709 16.83683777 319.60267639 C16.83267349 318.29133224 16.82850922 316.9799881 16.82421875 315.62890625 C16.81378948 314.26805346 16.80236608 312.90720796 16.78999329 311.54637146 C16.73764086 305.76735964 16.68967471 299.98847172 16.67407227 294.20922852 C16.66390013 290.67289518 16.63433577 287.13715453 16.59275246 283.60105705 C16.57467715 281.61672994 16.57707321 279.63224968 16.58000183 277.64784241 C16.4362796 266.89325022 14.07604784 258.42945485 7.953125 249.55859375 C7 248 7 248 7 246 C8.25876953 245.90525391 8.25876953 245.90525391 9.54296875 245.80859375 C29.74857624 243.75121678 52.16538748 236.51502303 66 221 C79.05993762 204.46194523 83.60155636 184.33270433 83.5 163.5625 C83.49823761 162.88367767 83.49647522 162.20485535 83.49465942 161.50546265 C83.4012171 145.35373098 79.77777773 130.88447509 68.73828125 118.453125 C67 116 67 116 67.046875 113.7734375 C67.27890625 112.98195313 67.5109375 112.19046875 67.75 111.375 C70.63180718 98.60531548 69.66621373 85.48032343 66 73 C65.66093392 71.66811296 65.32515638 70.33535097 65 69 C49.49427809 70.55754628 33.20622424 75.87852849 20.80078125 85.75 C18.15569656 87.58606746 15.9007391 86.96922228 12.83544922 86.52539062 C10.77283346 86.1432011 8.71775849 85.71960951 6.66845703 85.27148438 C-3.25500901 83.16724367 -12.74856989 82.53140451 -22.88085938 82.60888672 C-25.36644715 82.62494474 -27.85039897 82.6089482 -30.3359375 82.58984375 C-40.12965483 82.57800654 -49.44568246 83.43507072 -59.06884766 85.25927734 C-69.50627801 87.23447029 -69.50627801 87.23447029 -73.03515625 85.55859375 C-74.03417969 84.85863281 -75.03320312 84.15867187 -76.0625 83.4375 C-82.7248022 78.98782456 -89.51387679 75.90723231 -97 73 C-97.8353125 72.67 -98.670625 72.34 -99.53125 72 C-104.951995 70.01493845 -110.25261658 69.34796267 -116 69 C-118.84669183 77.98487109 -120.38854112 86.42076017 -120.375 95.875 C-120.37628906 96.72924561 -120.37757813 97.58349121 -120.37890625 98.46362305 C-120.30280118 102.94214726 -119.82923883 106.94027805 -118.75390625 111.29296875 C-117.99450227 114.79801566 -117.82622626 115.62242363 -119.37890625 118.99609375 C-120.09949219 119.80175781 -120.82007813 120.60742188 -121.5625 121.4375 C-132.01417591 134.24981305 -134.58397282 148.52227018 -134.4375 164.6875 C-134.43445862 165.3965448 -134.43141724 166.1055896 -134.42828369 166.83612061 C-134.3612492 177.38675437 -133.76886893 187.03941784 -130 197 C-129.56429687 198.21042969 -129.12859375 199.42085937 -128.6796875 200.66796875 C-122.1011962 217.43772936 -111.0970263 229.05828256 -95 237 C-83.06803299 241.97502353 -70.71283983 244.8728516 -58 247 C-58.38671875 247.57105469 -58.7734375 248.14210938 -59.171875 248.73046875 C-62.38865904 253.73877855 -64.38359288 258.06120047 -65.75 263.875 C-67.38422981 269.42484444 -67.38422981 269.42484444 -69.8359375 271.71484375 C-78.11137579 275.68309999 -90.05540303 275.36314367 -98.87890625 273.33984375 C-107.20327785 269.99561794 -113.0223477 263.27467551 -118.28515625 256.26953125 C-124.06990872 248.61362878 -130.22821086 241.14979361 -140 239 C-144.24932779 238.72207495 -147.93752555 238.64584185 -152 240 C-151.68857769 243.06577963 -151.0181865 243.98323868 -148.70703125 246.11328125 C-147.27423828 247.20189453 -147.27423828 247.20189453 -145.8125 248.3125 C-135.39891719 256.58961873 -129.59419973 266.30719978 -124.0625 278.375 C-119.9065844 286.774555 -113.92178021 289.97340564 -105.39453125 293.23828125 C-101.31557254 294.53582929 -97.47570938 295.12680318 -93.19921875 295.1328125 C-92.30396484 295.13410156 -91.40871094 295.13539063 -90.48632812 295.13671875 C-89.56271484 295.13285156 -88.63910156 295.12898438 -87.6875 295.125 C-86.77548828 295.12886719 -85.86347656 295.13273437 -84.92382812 295.13671875 C-83.57514648 295.13478516 -83.57514648 295.13478516 -82.19921875 295.1328125 C-80.99011841 295.13112061 -80.99011841 295.13112061 -79.7565918 295.12939453 C-76.1343944 294.95936844 -72.59419203 294.48088107 -69 294 C-68.90102819 299.05365292 -68.82848397 304.10674024 -68.78027344 309.16113281 C-68.76017372 310.87998279 -68.73288911 312.59876452 -68.69824219 314.31738281 C-68.64964966 316.78988489 -68.62701565 319.2614821 -68.609375 321.734375 C-68.58872986 322.50118591 -68.56808472 323.26799683 -68.54681396 324.05804443 C-68.54531645 327.62902417 -68.68056428 329.5872792 -70.89941406 332.45410156 C-74.47826241 335.08790767 -76.54492718 335.36067294 -81 335 C-84.03547162 334.07338235 -86.90886557 332.83793098 -89.8125 331.5625 C-91.06003052 331.02278564 -91.06003052 331.02278564 -92.33276367 330.47216797 C-136.58025067 311.0034416 -170.02959591 276.87259981 -187.87207031 231.796875 C-190.56147281 224.56069061 -192.60880298 217.13934441 -194.37890625 209.62890625 C-194.90600907 207.39783581 -195.50443634 205.20594529 -196.125 203 C-198.5384793 193.09394837 -198.18643121 182.58551205 -198.18530273 172.44726562 C-198.18748327 170.26672644 -198.20570232 168.08670001 -198.22460938 165.90625 C-198.2809244 152.33165281 -197.05627457 139.16633269 -193.3125 126.0625 C-193.05122314 125.13284424 -192.78994629 124.20318848 -192.52075195 123.24536133 C-180.69204611 82.44839628 -154.38748094 48.14573468 -119 25 C-118.05688965 24.37569092 -118.05688965 24.37569092 -117.09472656 23.73876953 C-101.9360643 13.80625957 -85.41685224 7.70036389 -68 3 C-66.31583984 2.48953125 -66.31583984 2.48953125 -64.59765625 1.96875 C-44.01657364 -3.57317018 -20.87402738 -4.05171539 0 0 Z " fill="#FDFDFE" transform="translate(626,149)"/>
</svg>
